<svg xmlns="http://www.w3.org/2000/svg" viewBox="0 0 50 50"><defs><style>.cls-1{fill:#fff;}.cls-2{fill:none;}</style></defs><title>bag</title><g id="Layer_2" data-name="Layer 2"><g id="Layer_1-2" data-name="Layer 1"><path class="cls-1" d="M39.81,15.13H34.87a9.87,9.87,0,1,0-19.74,0H10.19a4.94,4.94,0,0,0-4.94,4.93V36.52a8.25,8.25,0,0,0,8.23,8.23h23a8.25,8.25,0,0,0,8.23-8.23V20.06A4.94,4.94,0,0,0,39.81,15.13ZM25,8.55a6.58,6.58,0,0,1,6.58,6.58H18.42A6.58,6.58,0,0,1,25,8.55Zm16.45,28a4.93,4.93,0,0,1-4.93,4.93h-23a4.93,4.93,0,0,1-4.93-4.93V20.06a1.63,1.63,0,0,1,1.64-1.64h4.94v3.29a1.65,1.65,0,0,0,3.29,0V18.42H31.58v3.29a1.65,1.65,0,0,0,3.29,0V18.42h4.94a1.63,1.63,0,0,1,1.64,1.64Z"/><rect class="cls-2" width="50" height="50"/></g></g></svg>