<svg xmlns="http://www.w3.org/2000/svg" xmlns:xlink="http://www.w3.org/1999/xlink" viewBox="0 0 50 50"><defs><style>.cls-1{fill:url(#linear-gradient);}.cls-2{fill:none;}</style><linearGradient id="linear-gradient" x1="37.18" y1="11.67" x2="12.73" y2="46.07" gradientUnits="userSpaceOnUse"><stop offset="0" stop-color="#f7a616"/><stop offset="1" stop-color="#cf6a00"/></linearGradient></defs><title>bagInto</title><g id="Layer_2" data-name="Layer 2"><g id="Layer_1-2" data-name="Layer 1"><path class="cls-1" d="M39.81,15.13H34.87a9.87,9.87,0,1,0-19.74,0H10.19a4.94,4.94,0,0,0-4.94,4.93V36.52a8.25,8.25,0,0,0,8.23,8.23h23a8.25,8.25,0,0,0,8.23-8.23V20.06A4.94,4.94,0,0,0,39.81,15.13ZM25,8.55a6.58,6.58,0,0,1,6.58,6.58H18.42A6.58,6.58,0,0,1,25,8.55Z"/><rect class="cls-2" width="50" height="50"/></g></g></svg>