<svg xmlns="http://www.w3.org/2000/svg" viewBox="0 0 50 50"><defs><style>.cls-1{fill:#fff;}.cls-2{fill:none;}</style></defs><title>favorito</title><g id="Layer_2" data-name="Layer 2"><g id="Layer_1-2" data-name="Layer 1"><path class="cls-1" d="M34.05,7.64a10.54,10.54,0,0,0-9,5.43,10.54,10.54,0,0,0-9-5.43,11.19,11.19,0,0,0-10.7,11.6c0,7.49,7.88,15.66,14.48,21.2a8.19,8.19,0,0,0,10.54,0c6.6-5.54,14.48-13.71,14.48-21.2A11.19,11.19,0,0,0,34.05,7.64Zm-5.9,30.28a4.9,4.9,0,0,1-6.3,0C13.39,30.83,8.55,24,8.55,19.24A7.9,7.9,0,0,1,16,10.93a7.9,7.9,0,0,1,7.4,8.31,1.65,1.65,0,0,0,3.3,0,7.9,7.9,0,0,1,7.4-8.31,7.9,7.9,0,0,1,7.4,8.31c0,4.78-4.84,11.59-13.3,18.67Z"/><rect class="cls-2" width="50" height="50"/></g></g></svg>