<svg xmlns="http://www.w3.org/2000/svg" xmlns:xlink="http://www.w3.org/1999/xlink" viewBox="0 0 50 50"><defs><style>.cls-1{fill:url(#linear-gradient);}.cls-2{fill:url(#linear-gradient-2);}.cls-3{fill:url(#linear-gradient-3);}.cls-4{fill:url(#linear-gradient-4);}.cls-5{fill:none;}</style><linearGradient id="linear-gradient" x1="20.11" y1="6.13" x2="8.5" y2="22.48" gradientUnits="userSpaceOnUse"><stop offset="0" stop-color="#f7a616"/><stop offset="1" stop-color="#cf6a00"/></linearGradient><linearGradient id="linear-gradient-2" x1="41.5" y1="6.13" x2="29.89" y2="22.48" xlink:href="#linear-gradient"/><linearGradient id="linear-gradient-3" x1="20.11" y1="27.52" x2="8.5" y2="43.87" xlink:href="#linear-gradient"/><linearGradient id="linear-gradient-4" x1="41.5" y1="27.52" x2="29.89" y2="43.87" xlink:href="#linear-gradient"/></defs><title>menuInto</title><g id="Layer_2" data-name="Layer 2"><g id="Layer_1-2" data-name="Layer 1"><path class="cls-1" d="M16.77,5.25H11.84a6.59,6.59,0,0,0-6.59,6.59v4.93a6.58,6.58,0,0,0,6.59,6.58h4.93a6.57,6.57,0,0,0,6.58-6.58V11.84A6.58,6.58,0,0,0,16.77,5.25Z"/><path class="cls-2" d="M38.16,5.25H33.23a6.58,6.58,0,0,0-6.58,6.59v4.93a6.57,6.57,0,0,0,6.58,6.58h4.93a6.58,6.58,0,0,0,6.59-6.58V11.84A6.59,6.59,0,0,0,38.16,5.25Z"/><path class="cls-3" d="M16.77,26.65H11.84a6.58,6.58,0,0,0-6.59,6.58v4.93a6.59,6.59,0,0,0,6.59,6.59h4.93a6.58,6.58,0,0,0,6.58-6.59V33.23A6.57,6.57,0,0,0,16.77,26.65Z"/><path class="cls-4" d="M38.16,26.65H33.23a6.57,6.57,0,0,0-6.58,6.58v4.93a6.58,6.58,0,0,0,6.58,6.59h4.93a6.59,6.59,0,0,0,6.59-6.59V33.23A6.58,6.58,0,0,0,38.16,26.65Z"/><rect class="cls-5" width="50" height="50"/></g></g></svg>