<svg xmlns="http://www.w3.org/2000/svg" viewBox="0 0 50 50"><defs><style>.cls-1{fill:#fff;}.cls-2{fill:none;}</style></defs><title>menu</title><g id="Layer_2" data-name="Layer 2"><g id="Layer_1-2" data-name="Layer 1"><path class="cls-1" d="M16.77,5.25H11.84a6.59,6.59,0,0,0-6.59,6.59v4.93a6.58,6.58,0,0,0,6.59,6.58h4.93a6.57,6.57,0,0,0,6.58-6.58V11.84A6.58,6.58,0,0,0,16.77,5.25Zm3.29,11.52a3.29,3.29,0,0,1-3.29,3.29H11.84a3.29,3.29,0,0,1-3.29-3.29V11.84a3.29,3.29,0,0,1,3.29-3.29h4.93a3.29,3.29,0,0,1,3.29,3.29Z"/><path class="cls-1" d="M38.16,5.25H33.23a6.58,6.58,0,0,0-6.58,6.59v4.93a6.57,6.57,0,0,0,6.58,6.58h4.93a6.58,6.58,0,0,0,6.59-6.58V11.84A6.59,6.59,0,0,0,38.16,5.25Zm3.29,11.52a3.29,3.29,0,0,1-3.29,3.29H33.23a3.29,3.29,0,0,1-3.29-3.29V11.84a3.29,3.29,0,0,1,3.29-3.29h4.93a3.29,3.29,0,0,1,3.29,3.29Z"/><path class="cls-1" d="M16.77,26.65H11.84a6.58,6.58,0,0,0-6.59,6.58v4.93a6.59,6.59,0,0,0,6.59,6.59h4.93a6.58,6.58,0,0,0,6.58-6.59V33.23A6.57,6.57,0,0,0,16.77,26.65Zm3.29,11.51a3.29,3.29,0,0,1-3.29,3.29H11.84a3.29,3.29,0,0,1-3.29-3.29V33.23a3.29,3.29,0,0,1,3.29-3.29h4.93a3.29,3.29,0,0,1,3.29,3.29Z"/><path class="cls-1" d="M38.16,26.65H33.23a6.57,6.57,0,0,0-6.58,6.58v4.93a6.58,6.58,0,0,0,6.58,6.59h4.93a6.59,6.59,0,0,0,6.59-6.59V33.23A6.58,6.58,0,0,0,38.16,26.65Zm3.29,11.51a3.29,3.29,0,0,1-3.29,3.29H33.23a3.29,3.29,0,0,1-3.29-3.29V33.23a3.29,3.29,0,0,1,3.29-3.29h4.93a3.29,3.29,0,0,1,3.29,3.29Z"/><rect class="cls-2" width="50" height="50"/></g></g></svg>