<svg xmlns="http://www.w3.org/2000/svg" viewBox="0 0 50 50"><defs><style>.cls-1{fill:#fff;}.cls-2{fill:none;}</style></defs><title>notification</title><g id="Layer_2" data-name="Layer 2"><g id="Layer_1-2" data-name="Layer 1"><path class="cls-1" d="M42.6,27.73,39.47,16.48a15.34,15.34,0,0,0-29.75.78L7.3,28.15a8.25,8.25,0,0,0,8,10h1.84a8.23,8.23,0,0,0,16.12,0h1.38A8.23,8.23,0,0,0,42.6,27.73ZM25.23,41.45a5,5,0,0,1-4.64-3.29h9.27A4.94,4.94,0,0,1,25.23,41.45ZM38.6,32.92a4.93,4.93,0,0,1-3.93,1.95H15.33a4.94,4.94,0,0,1-4.93-4.94,5.47,5.47,0,0,1,.11-1.07L12.93,18a12.05,12.05,0,0,1,23.37-.61l3.12,11.25A4.89,4.89,0,0,1,38.6,32.92Z"/><rect class="cls-2" width="50" height="50"/></g></g></svg>