<svg xmlns="http://www.w3.org/2000/svg" viewBox="0 0 50 50"><defs><style>.cls-1{fill:#fff;}.cls-2{fill:none;}</style></defs><title>user</title><g id="Layer_2" data-name="Layer 2"><g id="Layer_1-2" data-name="Layer 1"><path class="cls-1" d="M25,25a9.88,9.88,0,1,0-9.87-9.87A9.87,9.87,0,0,0,25,25ZM25,8.55a6.58,6.58,0,1,1-6.58,6.58A6.58,6.58,0,0,1,25,8.55Z"/><path class="cls-1" d="M25,28.29A14.83,14.83,0,0,0,10.19,43.1a1.65,1.65,0,0,0,1.65,1.65,1.33,1.33,0,0,0,.28,0H37.88a1.33,1.33,0,0,0,.28,0,1.65,1.65,0,0,0,1.65-1.65A14.83,14.83,0,0,0,25,28.29ZM13.54,42a11.52,11.52,0,0,1,22.92,0C30.72,41.94,13.77,41.88,13.54,42Z"/><rect class="cls-2" width="50" height="50"/></g></g></svg>