<svg xmlns="http://www.w3.org/2000/svg" xmlns:xlink="http://www.w3.org/1999/xlink" viewBox="0 0 50 50"><defs><style>.cls-1{fill:url(#linear-gradient);}.cls-2{fill:url(#linear-gradient-2);}.cls-3{fill:none;}</style><linearGradient id="linear-gradient" x1="30.72" y1="7.08" x2="19.28" y2="23.17" gradientUnits="userSpaceOnUse"><stop offset="0" stop-color="#f7a616"/><stop offset="1" stop-color="#cf6a00"/></linearGradient><linearGradient id="linear-gradient-2" x1="32.59" y1="30.33" x2="18.64" y2="49.95" xlink:href="#linear-gradient"/></defs><title>userInto</title><g id="Layer_2" data-name="Layer 2"><g id="Layer_1-2" data-name="Layer 1"><path class="cls-1" d="M25,25a9.88,9.88,0,1,0-9.87-9.87A9.87,9.87,0,0,0,25,25Z"/><path class="cls-2" d="M25,28.29A14.83,14.83,0,0,0,10.19,43.1a1.65,1.65,0,0,0,1.65,1.65,1.33,1.33,0,0,0,.28,0H37.88a1.33,1.33,0,0,0,.28,0,1.65,1.65,0,0,0,1.65-1.65A14.83,14.83,0,0,0,25,28.29Z"/><rect class="cls-3" width="50" height="50"/></g></g></svg>